<?xml version="1.0" standalone="no"?>
<!DOCTYPE svg PUBLIC "-//W3C//DTD SVG 20010904//EN"
 "http://www.w3.org/TR/2001/REC-SVG-20010904/DTD/svg10.dtd">
<svg version="1.0" xmlns="http://www.w3.org/2000/svg"
 width="552.000000pt" height="452.000000pt" viewBox="0 0 552.000000 452.000000"
 preserveAspectRatio="xMidYMid meet">

<g transform="translate(0.000000,452.000000) scale(0.100000,-0.100000)"
fill="#000000" stroke="none">
<path d="M2588 4200 c-322 -37 -566 -179 -712 -413 -64 -103 -99 -203 -132
-373 -3 -18 -13 -22 -63 -28 -91 -10 -197 -43 -291 -89 -115 -56 -222 -161
-273 -267 -52 -106 -67 -176 -67 -305 0 -121 15 -198 56 -282 85 -176 287
-306 535 -345 l78 -12 11 -49 c29 -138 36 -365 14 -477 l-6 -28 -32 18 c-80
46 -130 29 -173 -58 -23 -48 -28 -72 -31 -159 -10 -263 82 -467 221 -490 28
-4 38 -13 55 -48 135 -279 404 -490 712 -560 120 -28 328 -23 455 9 262 67
477 228 631 473 58 92 64 98 100 104 66 9 123 49 152 105 11 21 26 89 57 259
9 50 20 112 26 138 16 83 12 106 -18 118 -42 16 -57 0 -69 -72 -7 -35 -19
-102 -28 -149 -9 -47 -21 -110 -25 -140 -18 -113 -54 -160 -122 -160 -43 0
-81 27 -99 69 -12 30 -11 43 9 146 10 53 32 174 51 288 9 53 9 71 0 83 -18 21
-81 47 -217 89 -65 20 -131 42 -148 47 -298 105 -342 113 -635 113 -242 0
-377 -15 -560 -61 -52 -13 -98 -24 -102 -24 -5 0 -8 51 -8 113 0 167 -37 364
-85 458 -13 25 -19 26 -112 32 -166 9 -336 78 -415 166 -67 76 -91 140 -96
255 -9 202 52 330 202 428 61 39 176 81 258 93 l47 7 6 -38 c32 -185 85 -303
181 -402 36 -37 61 -58 55 -46 -5 11 -16 26 -24 32 -24 20 -77 146 -92 218
-19 89 -19 264 0 351 71 336 288 565 612 645 113 28 367 31 479 5 301 -68 487
-237 577 -522 25 -79 47 -221 47 -302 l0 -41 154 5 c178 7 271 -5 388 -47 210
-77 308 -221 308 -455 0 -255 -114 -400 -352 -449 -69 -14 -258 -23 -258 -12
0 3 9 20 19 38 38 65 54 145 48 242 -2 50 -9 102 -14 116 -9 21 -12 16 -26
-47 -22 -96 -74 -196 -148 -285 -104 -124 -194 -191 -316 -233 l-63 -22 39 -7
c77 -12 185 12 319 71 10 4 11 -4 5 -38 -13 -73 -8 -248 11 -359 10 -58 21
-111 25 -117 4 -7 12 41 19 106 12 116 50 293 72 342 11 24 12 24 138 21 157
-4 243 12 358 68 152 73 258 209 300 385 23 94 23 287 0 375 -47 183 -164 329
-326 409 -114 55 -257 91 -398 98 -104 6 -113 8 -117 27 -49 247 -127 414
-259 555 -132 140 -297 228 -505 271 -116 23 -303 33 -413 20z m360 -2635
c249 -26 545 -96 559 -132 3 -8 -1 -52 -10 -97 -33 -170 -50 -311 -43 -358 5
-34 18 -58 47 -92 l41 -46 -47 -76 c-84 -134 -220 -263 -357 -339 -255 -140
-584 -147 -843 -18 -152 76 -310 223 -398 371 l-49 81 32 39 c34 42 60 116 60
168 0 66 -59 268 -89 309 -23 30 -20 45 11 61 98 51 357 113 548 133 140 14
381 12 538 -4z m-1263 -121 c27 -27 34 -41 29 -56 -5 -16 -3 -20 9 -15 33 13
117 -209 117 -307 0 -43 -16 -96 -30 -96 -3 0 -4 30 -2 66 3 37 -1 84 -8 108
-40 130 -79 210 -140 278 -36 41 -41 58 -19 58 5 0 24 -16 44 -36z"/>
<path d="M2275 1434 c-88 -45 -155 -170 -113 -212 28 -28 88 0 88 42 0 10 15
33 34 52 29 29 41 34 79 34 57 0 93 -28 117 -91 15 -37 22 -44 49 -47 94 -10
40 163 -70 218 -47 25 -141 27 -184 4z"/>
<path d="M2929 1430 c-84 -44 -148 -173 -105 -209 8 -7 27 -11 43 -9 22 2 30
10 38 37 6 19 24 50 41 68 26 27 39 33 74 33 59 0 94 -24 121 -84 17 -37 30
-52 47 -54 30 -5 52 14 52 45 0 30 -44 121 -68 140 -66 54 -176 68 -243 33z"/>
<path d="M2152 838 c-24 -24 -12 -56 37 -103 86 -82 159 -126 286 -171 74 -26
90 -28 225 -28 137 1 150 3 229 32 154 57 321 179 321 234 0 59 -60 65 -111
12 -52 -55 -155 -118 -244 -150 -71 -25 -93 -28 -200 -28 -104 1 -131 4 -199
28 -86 29 -190 93 -245 150 -36 37 -76 47 -99 24z"/>
<path d="M3696 1474 c-17 -17 -17 -15 -41 -154 -9 -52 -23 -125 -31 -162 -27
-126 -14 -178 40 -164 27 7 33 30 71 241 9 50 20 109 25 132 14 61 12 88 -8
106 -23 21 -36 21 -56 1z"/>
</g>
</svg>
