<?xml version="1.0" standalone="no"?>
<!DOCTYPE svg PUBLIC "-//W3C//DTD SVG 20010904//EN"
 "http://www.w3.org/TR/2001/REC-SVG-20010904/DTD/svg10.dtd">
<svg version="1.0" xmlns="http://www.w3.org/2000/svg"
 width="552.000000pt" height="452.000000pt" viewBox="0 0 552.000000 452.000000"
 preserveAspectRatio="xMidYMid meet">

<g transform="translate(0.000000,452.000000) scale(0.100000,-0.100000)"
fill="#000000" stroke="none">
<path d="M2649 3704 c-149 -46 -259 -197 -263 -362 -1 -60 -4 -71 -16 -66 -52
23 -121 35 -169 29 -69 -7 -163 -56 -202 -106 -55 -70 -74 -125 -74 -219 0
-115 20 -155 139 -279 101 -105 151 -181 161 -242 10 -60 20 -62 120 -24 50
18 126 41 170 51 108 23 330 23 445 1 87 -17 264 -70 289 -86 12 -8 11 -29 -8
-140 -25 -143 -24 -164 14 -209 l25 -29 -38 -59 c-49 -75 -141 -160 -217 -201
-161 -85 -367 -85 -530 0 -72 38 -201 163 -234 228 l-24 46 24 32 c66 90 -12
340 -125 395 -37 18 -38 18 -64 -1 -35 -26 -51 -73 -51 -150 -2 -148 54 -272
129 -288 21 -5 37 -22 67 -72 81 -140 234 -257 389 -297 79 -20 228 -21 307 0
150 39 283 135 371 268 48 72 61 85 91 90 36 7 81 52 90 89 16 67 45 237 45
264 0 26 -4 33 -19 33 -11 0 -23 -5 -26 -10 -4 -6 -17 -69 -30 -140 -14 -72
-29 -139 -35 -150 -23 -44 -104 -34 -116 14 -3 14 6 90 20 168 20 116 23 145
13 156 -20 20 -201 79 -317 103 -124 26 -375 32 -475 10 -53 -11 -202 -54
-230 -67 -6 -2 -23 26 -39 62 -23 52 -51 90 -132 174 -56 59 -110 122 -119
141 -27 51 -32 159 -10 216 39 103 128 166 235 167 90 1 162 -39 207 -115 37
-65 67 -93 88 -86 23 10 18 33 -20 88 -118 172 -63 401 120 497 43 23 62 27
135 27 73 0 92 -4 135 -27 183 -96 238 -325 120 -497 -38 -55 -43 -78 -20 -88
21 -8 52 22 87 85 54 95 165 139 272 108 143 -42 222 -202 171 -345 -23 -65
-52 -99 -126 -146 -47 -31 -76 -58 -94 -89 -34 -57 -42 -108 -21 -125 21 -18
34 -7 47 42 12 43 52 88 130 142 198 138 179 450 -34 555 -94 46 -181 48 -277
6 -12 -5 -15 6 -16 66 -5 256 -246 436 -485 362z m-496 -1331 c56 -81 88 -189
73 -247 -11 -43 -21 -29 -18 21 4 58 -25 141 -73 213 -20 30 -29 50 -21 50 7
0 25 -17 39 -37z"/>
<path d="M3366 2403 c-15 -55 -47 -255 -42 -268 8 -21 44 -19 50 3 14 47 47
256 42 268 -8 20 -44 17 -50 -3z"/>
<path d="M2480 2378 c-36 -24 -67 -86 -57 -113 11 -28 46 -17 61 20 29 70 102
72 136 5 21 -42 40 -50 59 -26 16 19 -6 71 -42 105 -39 36 -111 40 -157 9z"/>
<path d="M2893 2380 c-59 -36 -83 -121 -36 -128 17 -3 24 3 29 23 8 31 49 65
78 65 28 -1 49 -18 70 -58 24 -46 51 -40 50 11 -3 86 -112 136 -191 87z"/>
<path d="M2420 2015 c-11 -13 -5 -23 37 -64 94 -91 240 -136 368 -114 121 21
280 118 273 167 -5 33 -36 31 -78 -8 -144 -130 -347 -136 -506 -15 -36 27 -69
49 -73 49 -5 0 -14 -7 -21 -15z"/>
</g>
</svg>
