<?xml version="1.0" standalone="no"?>
<!DOCTYPE svg PUBLIC "-//W3C//DTD SVG 20010904//EN"
 "http://www.w3.org/TR/2001/REC-SVG-20010904/DTD/svg10.dtd">
<svg version="1.0" xmlns="http://www.w3.org/2000/svg"
 width="552.000000pt" height="452.000000pt" viewBox="0 0 552.000000 452.000000"
 preserveAspectRatio="xMidYMid meet">

<g transform="translate(0.000000,452.000000) scale(0.100000,-0.100000)"
fill="#000000" stroke="none">
<path d="M2472 4180 c-376 -82 -630 -321 -703 -666 -12 -54 -23 -104 -25 -110
-1 -6 -29 -15 -61 -19 -91 -11 -219 -52 -308 -98 -157 -81 -274 -234 -310
-403 -19 -88 -19 -230 0 -317 50 -239 271 -418 578 -467 77 -13 77 -13 87 -49
16 -61 30 -201 30 -296 0 -89 -14 -212 -24 -223 -3 -3 -15 3 -25 12 -29 26
-95 32 -126 12 -74 -48 -104 -220 -70 -400 35 -184 99 -282 201 -307 41 -11
48 -17 74 -68 60 -120 146 -225 267 -328 231 -197 586 -276 892 -197 270 69
506 253 650 507 25 43 38 57 56 57 36 0 97 29 132 63 37 35 54 82 78 217 9 52
23 127 30 165 7 39 17 91 20 116 7 45 6 47 -25 58 -18 6 -36 9 -40 6 -7 -4
-15 -41 -44 -200 -49 -271 -48 -266 -83 -301 -55 -56 -138 -39 -169 34 -15 37
-15 57 5 157 5 28 15 84 21 125 7 41 18 107 24 145 7 39 10 78 8 89 -5 23 -93
63 -237 106 -60 18 -152 48 -203 67 -125 45 -233 69 -377 84 -211 21 -557 -8
-767 -64 l-88 -24 0 96 c0 164 -32 353 -78 460 l-17 42 -82 5 c-230 13 -414
108 -492 253 -89 167 -52 410 82 542 63 62 185 123 288 146 90 19 109 14 109
-25 0 -51 38 -179 76 -257 22 -46 59 -99 96 -138 l59 -62 -36 56 c-139 217
-131 564 18 828 49 86 165 210 250 265 73 48 175 89 274 113 61 14 115 18 248
17 149 -1 182 -4 267 -27 344 -91 552 -363 575 -749 3 -60 9 -108 12 -108 3 0
54 5 113 10 245 23 485 -40 604 -159 90 -90 126 -191 125 -351 -1 -249 -110
-393 -336 -443 -63 -14 -187 -23 -257 -19 l-27 2 24 43 c42 75 58 152 52 242
-3 44 -10 91 -15 104 -7 20 -10 16 -21 -35 -20 -93 -82 -210 -160 -300 -101
-118 -188 -179 -316 -225 l-50 -18 80 0 c85 -1 150 13 229 48 27 11 51 20 52
18 2 -2 0 -38 -5 -81 -9 -80 -1 -220 20 -342 17 -103 25 -105 33 -8 7 101 37
254 64 333 l18 54 160 2 c122 1 172 6 214 19 171 56 294 154 360 290 22 45 47
113 55 151 19 89 19 270 0 358 -46 220 -208 385 -455 466 -77 25 -241 51 -323
51 -38 0 -59 4 -61 13 -1 6 -15 60 -29 119 -88 365 -326 610 -685 705 -85 23
-121 26 -292 29 -166 3 -209 1 -288 -16z m476 -2615 c249 -26 545 -96 559
-132 3 -8 -1 -52 -10 -97 -33 -170 -50 -311 -43 -358 5 -34 18 -58 47 -92 l41
-46 -47 -76 c-84 -134 -220 -263 -357 -339 -255 -140 -584 -147 -843 -18 -152
76 -310 223 -398 371 l-49 81 32 39 c34 42 60 116 60 168 0 66 -59 268 -89
309 -23 30 -20 45 11 61 98 51 357 113 548 133 140 14 381 12 538 -4z m-1263
-121 c27 -27 34 -41 29 -56 -5 -16 -3 -20 9 -15 33 13 117 -209 117 -307 0
-43 -16 -96 -30 -96 -3 0 -4 30 -2 66 3 37 -1 84 -8 108 -40 130 -79 210 -140
278 -36 41 -41 58 -19 58 5 0 24 -16 44 -36z"/>
<path d="M2275 1434 c-88 -45 -155 -170 -113 -212 28 -28 88 0 88 42 0 10 15
33 34 52 29 29 41 34 79 34 57 0 93 -28 117 -91 15 -37 22 -44 49 -47 94 -10
40 163 -70 218 -47 25 -141 27 -184 4z"/>
<path d="M2929 1430 c-84 -44 -148 -173 -105 -209 8 -7 27 -11 43 -9 22 2 30
10 38 37 6 19 24 50 41 68 26 27 39 33 74 33 59 0 94 -24 121 -84 17 -37 30
-52 47 -54 30 -5 52 14 52 45 0 30 -44 121 -68 140 -66 54 -176 68 -243 33z"/>
<path d="M2152 838 c-24 -24 -12 -56 37 -103 86 -82 159 -126 286 -171 74 -26
90 -28 225 -28 137 1 150 3 229 32 154 57 321 179 321 234 0 59 -60 65 -111
12 -52 -55 -155 -118 -244 -150 -71 -25 -93 -28 -200 -28 -104 1 -131 4 -199
28 -86 29 -190 93 -245 150 -36 37 -76 47 -99 24z"/>
<path d="M3692 1463 c-5 -10 -15 -49 -22 -88 -6 -38 -23 -127 -37 -197 -14
-71 -22 -139 -19 -153 6 -22 11 -26 39 -23 37 4 37 4 82 263 9 50 20 109 26
133 6 29 6 49 -1 62 -13 25 -56 26 -68 3z"/>
</g>
</svg>
