<?xml version="1.0" standalone="no"?>
<!DOCTYPE svg PUBLIC "-//W3C//DTD SVG 20010904//EN"
 "http://www.w3.org/TR/2001/REC-SVG-20010904/DTD/svg10.dtd">
<svg version="1.0" xmlns="http://www.w3.org/2000/svg"
 width="100.000000pt" height="100.000000pt" viewBox="0 0 100.000000 100.000000"
 preserveAspectRatio="xMidYMid meet">

<g transform="translate(0.000000,100.000000) scale(0.100000,-0.100000)"
fill="#000000" stroke="none">
<path d="M264 781 c-126 -57 -138 -211 -26 -342 38 -44 249 -229 262 -229 13
0 224 185 262 229 112 131 100 285 -26 342 -72 33 -149 18 -208 -38 l-28 -27
-27 27 c-60 56 -137 71 -209 38z m142 -37 c19 -9 47 -32 64 -50 l30 -35 30 35
c57 65 136 83 198 46 70 -43 91 -125 52 -206 -20 -41 -135 -158 -232 -238
l-48 -38 -47 38 c-98 80 -213 197 -233 238 -66 137 54 272 186 210z"/>
</g>
</svg>
